<svg width="27" height="27" viewBox="0 0 27 27" fill="none" xmlns="http://www.w3.org/2000/svg">
<path d="M13.125 26.25C9.45486 26.25 6.34983 25.6849 3.8099 24.5547C1.26997 23.4245 0 22.0451 0 20.4167V5.83333C0 4.22917 1.28212 2.8559 3.84635 1.71354C6.41059 0.571181 9.50347 0 13.125 0C16.7465 0 19.8394 0.571181 22.4036 1.71354C24.9679 2.8559 26.25 4.22917 26.25 5.83333V20.4167C26.25 22.0451 24.98 23.4245 22.4401 24.5547C19.9002 25.6849 16.7951 26.25 13.125 26.25ZM13.125 8.78646C15.2882 8.78646 17.4635 8.47656 19.651 7.85677C21.8385 7.23698 23.066 6.57465 23.3333 5.86979C23.066 5.16493 21.8446 4.49653 19.6693 3.86458C17.4939 3.23264 15.3125 2.91667 13.125 2.91667C10.9132 2.91667 8.74392 3.22656 6.61719 3.84635C4.49045 4.46615 3.25694 5.14062 2.91667 5.86979C3.25694 6.59896 4.49045 7.26736 6.61719 7.875C8.74392 8.48264 10.9132 8.78646 13.125 8.78646ZM13.125 16.0417C14.1458 16.0417 15.1302 15.9931 16.0781 15.8958C17.026 15.7986 17.9314 15.6589 18.7943 15.4766C19.6571 15.2943 20.4714 15.0694 21.237 14.8021C22.0026 14.5347 22.7014 14.2309 23.3333 13.8906V9.51562C22.7014 9.8559 22.0026 10.1597 21.237 10.4271C20.4714 10.6944 19.6571 10.9193 18.7943 11.1016C17.9314 11.2839 17.026 11.4236 16.0781 11.5208C15.1302 11.6181 14.1458 11.6667 13.125 11.6667C12.1042 11.6667 11.1076 11.6181 10.1354 11.5208C9.16319 11.4236 8.24566 11.2839 7.38281 11.1016C6.51997 10.9193 5.71181 10.6944 4.95833 10.4271C4.20486 10.1597 3.52431 9.8559 2.91667 9.51562V13.8906C3.52431 14.2309 4.20486 14.5347 4.95833 14.8021C5.71181 15.0694 6.51997 15.2943 7.38281 15.4766C8.24566 15.6589 9.16319 15.7986 10.1354 15.8958C11.1076 15.9931 12.1042 16.0417 13.125 16.0417ZM13.125 23.3333C14.2431 23.3333 15.3793 23.2483 16.5339 23.0781C17.6884 22.908 18.7517 22.6832 19.724 22.4036C20.6962 22.1241 21.5104 21.8082 22.1667 21.4557C22.8229 21.1033 23.2118 20.7448 23.3333 20.3802V16.8073C22.7014 17.1476 22.0026 17.4514 21.237 17.7188C20.4714 17.9861 19.6571 18.2109 18.7943 18.3932C17.9314 18.5755 17.026 18.7153 16.0781 18.8125C15.1302 18.9097 14.1458 18.9583 13.125 18.9583C12.1042 18.9583 11.1076 18.9097 10.1354 18.8125C9.16319 18.7153 8.24566 18.5755 7.38281 18.3932C6.51997 18.2109 5.71181 17.9861 4.95833 17.7188C4.20486 17.4514 3.52431 17.1476 2.91667 16.8073V20.4167C3.03819 20.7812 3.42101 21.1337 4.0651 21.474C4.7092 21.8142 5.51736 22.1241 6.48958 22.4036C7.46181 22.6832 8.53125 22.908 9.69792 23.0781C10.8646 23.2483 12.0069 23.3333 13.125 23.3333Z" fill="#0FBE5E"/>
</svg>
