<svg width="25" height="22" viewBox="0 0 25 22" fill="none" xmlns="http://www.w3.org/2000/svg">
<path d="M16.6567 4.67992C17.3305 3.92707 18.3098 3.45328 19.3996 3.45328C21.432 3.45328 23.0795 5.10085 23.0795 7.13321C23.0795 9.16563 21.432 10.8131 19.3996 10.8131H1M7.75789 1.81776C8.20711 1.31586 8.85991 1 9.58649 1C10.9414 1 12.0398 2.09837 12.0398 3.45328C12.0398 4.80819 10.9414 5.90657 9.58649 5.90657H1M11.4379 19.8085C11.8871 20.3104 12.5399 20.6263 13.2664 20.6263C14.6214 20.6263 15.7197 19.5279 15.7197 18.173C15.7197 16.818 14.6214 15.7197 13.2664 15.7197H1" stroke="#0FBE5E" stroke-width="2" stroke-linecap="round" stroke-linejoin="round"/>
</svg>
