<svg width="20" height="28" viewBox="0 0 20 28" fill="none" xmlns="http://www.w3.org/2000/svg">
<path d="M5.87508 27.8482C5.757 27.8237 5.67563 27.7988 5.65226 27.78C5.5984 27.7367 5.44642 27.6665 5.40642 27.6665C5.30899 27.6665 5.18604 27.5646 5.15237 27.456C5.13973 27.4152 5.13517 27.1324 5.13879 26.6139L5.14424 25.8332L5.18753 25.7454C5.22795 25.6635 5.26922 25.504 5.31459 25.2542C5.33953 25.1169 5.37899 24.9754 5.41973 24.877C5.43772 24.8336 5.45824 24.7395 5.46534 24.6679C5.47243 24.5963 5.48614 24.5134 5.49579 24.4837C5.50545 24.454 5.51909 24.3349 5.52611 24.2191C5.53751 24.0312 5.54504 23.9963 5.59616 23.8946C5.63956 23.8083 5.65753 23.7424 5.67035 23.6227C5.67965 23.5358 5.69543 23.4372 5.70541 23.4035C5.71539 23.3697 5.72382 23.1724 5.72414 22.9649C5.72466 22.6325 5.72897 22.5761 5.76034 22.4911C5.82316 22.3209 5.84455 22.2392 5.85688 22.1226C5.86351 22.0599 5.88088 21.9652 5.89548 21.9121C5.91169 21.8532 5.92543 21.6996 5.93081 21.5174C5.94023 21.1979 5.95754 21.0836 6.01299 20.9751C6.03861 20.925 6.05187 20.8486 6.06236 20.691C6.07024 20.5725 6.08244 20.4664 6.08946 20.4552C6.09648 20.444 6.1088 20.3772 6.11683 20.3068C6.12699 20.2175 6.15122 20.1376 6.19665 20.0434L6.26187 19.9081L6.25564 19.6948C6.24966 19.4899 6.24715 19.4779 6.19275 19.3941C6.16159 19.3461 6.1196 19.2654 6.09944 19.2148C6.05372 19.0999 5.9864 18.998 5.8883 18.8952C5.80727 18.8102 5.75131 18.7072 5.69011 18.5302C5.66921 18.4698 5.62406 18.381 5.58979 18.333C5.55552 18.2851 5.52748 18.2386 5.52748 18.2299C5.52748 18.2211 5.49752 18.1881 5.4609 18.1564C5.42429 18.1248 5.38554 18.0825 5.3748 18.0625C5.28299 17.8914 5.17352 17.7189 5.13466 17.684C5.12928 17.6792 5.10168 17.6295 5.07332 17.5736C5.04277 17.5134 4.94707 17.3919 4.83847 17.2754C4.73766 17.1672 4.65492 17.0692 4.65462 17.0574C4.6543 17.0457 4.62971 17.0116 4.59996 16.9817C4.57022 16.9517 4.52209 16.8784 4.49302 16.8188C4.46395 16.7591 4.42429 16.6906 4.4049 16.6665C4.3855 16.6424 4.36945 16.6138 4.36923 16.6031C4.36902 16.5923 4.34445 16.5568 4.31464 16.5241C4.2601 16.4644 4.12871 16.2166 4.07377 16.07C4.02844 15.949 4.02373 15.8875 4.05521 15.8276C4.07084 15.7978 4.08362 15.7378 4.08362 15.6941C4.08362 15.5892 4.04218 15.5628 3.84838 15.5442C3.73308 15.5331 3.67173 15.5159 3.57068 15.4666C3.49935 15.4318 3.4292 15.4033 3.41481 15.4033C3.36148 15.4033 3.23574 15.2521 3.15219 15.0875C3.10566 14.9959 3.06759 14.9125 3.06759 14.9022C3.06759 14.892 3.04408 14.8614 3.01533 14.8343C2.98659 14.8072 2.9383 14.7366 2.90801 14.6775C2.84033 14.5454 2.75522 14.4266 2.71184 14.4037C2.67293 14.3832 2.59071 14.2417 2.5332 14.0963C2.5103 14.0384 2.47827 13.9753 2.46202 13.956C2.40696 13.8906 2.37571 13.8307 2.34705 13.7358C2.33134 13.6837 2.29407 13.6112 2.26423 13.5746C2.23438 13.5381 2.19304 13.4551 2.17235 13.3902C2.1096 13.1935 2.06621 13.1387 1.92958 13.0835C1.68846 12.9862 1.58705 12.8523 1.56078 12.5963C1.54054 12.3992 1.44872 12.2922 1.26725 12.2542C1.1671 12.2333 1.08384 12.184 1.00318 12.0978C0.922064 12.0112 0.750598 11.7623 0.749868 11.73C0.749619 11.7192 0.711203 11.6652 0.664497 11.6099C0.617791 11.5546 0.55182 11.4563 0.517891 11.3913C0.483962 11.3263 0.43818 11.2585 0.416149 11.2405C0.394119 11.2226 0.341352 11.1552 0.298887 11.0907C0.256422 11.0263 0.208269 10.9627 0.191882 10.9495C0.175494 10.9362 0.162085 10.9185 0.162085 10.9101C0.162085 10.9017 0.134335 10.8591 0.100418 10.8154C-0.0357366 10.6398 -0.0332482 10.4308 0.106747 10.2838C0.137184 10.2519 0.162086 10.2176 0.162086 10.2077C0.162086 10.1978 0.198182 10.1491 0.2423 10.0995C0.286417 10.0498 0.322513 10.0039 0.322513 9.99744C0.322513 9.99097 0.351385 9.93557 0.386674 9.87434C0.421963 9.8131 0.465792 9.71563 0.484073 9.65774C0.531389 9.5079 0.599125 9.41205 0.807692 9.19986C0.908487 9.09731 1.00197 9.00205 1.01541 8.98819C1.03364 8.9694 1.03644 8.93972 1.0264 8.87176C0.993884 8.6515 1.00245 8.59522 1.09531 8.41871C1.14291 8.32824 1.21711 8.21843 1.2602 8.17467C1.30329 8.13092 1.33854 8.08713 1.33854 8.07735C1.33854 8.06758 1.37063 8.02875 1.40984 7.99106C1.44906 7.95338 1.48114 7.91478 1.48114 7.9053C1.48114 7.89582 1.49578 7.87176 1.51367 7.85184C1.53156 7.83192 1.56865 7.76508 1.5961 7.7033C1.62355 7.64152 1.6803 7.54678 1.72222 7.49277C1.79677 7.39669 1.9176 7.28054 1.94298 7.28054C1.97301 7.28054 2.04935 7.17734 2.07926 7.09633C2.12647 6.96843 2.21055 6.84737 2.33511 6.72791C2.47065 6.59792 2.50836 6.5401 2.54926 6.39954C2.59055 6.25765 2.64428 6.16002 2.70135 6.12317C2.77022 6.07871 2.86014 5.96524 2.89642 5.87703C2.94731 5.75327 2.95853 5.73178 3.0047 5.66958C3.02852 5.63749 3.06053 5.57039 3.07583 5.52045C3.10593 5.4222 3.1802 5.30717 3.28595 5.19505C3.32271 5.15607 3.3528 5.1161 3.3528 5.10624C3.3528 5.08811 3.47223 4.9674 3.59112 4.86538C3.6267 4.83484 3.65582 4.79882 3.65582 4.78533C3.65582 4.75724 3.73594 4.58868 3.76806 4.54919C3.77986 4.53468 3.8236 4.48525 3.86526 4.43934C3.90693 4.39343 3.94102 4.34796 3.94102 4.33831C3.94102 4.30539 4.23938 3.99986 4.27152 3.99986C4.28226 3.99986 4.32259 3.97181 4.36113 3.93754C4.47281 3.83824 4.60605 3.78301 4.70586 3.79464C4.75176 3.79999 4.81302 3.81598 4.84199 3.83018C4.90939 3.8632 4.96447 3.87855 5.26902 3.94919C5.45199 3.99162 5.54294 4.02225 5.60987 4.06397C5.66009 4.09526 5.72426 4.12615 5.75248 4.13261C5.81427 4.14676 5.94839 4.22006 5.96797 4.25039C5.9903 4.28498 6.15212 4.34741 6.2479 4.35837C6.29608 4.36389 6.37752 4.39008 6.42887 4.41659C6.52867 4.46809 6.67362 4.53914 6.77526 4.58638C6.80957 4.60233 6.87503 4.6407 6.92073 4.67165C7.15768 4.83215 7.20729 4.85504 7.34566 4.86772C7.41919 4.87446 7.52463 4.89116 7.57996 4.90483C7.63529 4.91851 7.74151 4.92969 7.81598 4.92969C7.94217 4.92969 7.95674 4.9337 8.02971 4.98851C8.07278 5.02087 8.1264 5.0642 8.14887 5.08481C8.17134 5.10541 8.20543 5.12717 8.22461 5.13317C8.2438 5.13916 8.30856 5.1747 8.36853 5.21215C8.4285 5.24959 8.49463 5.28031 8.51549 5.2804C8.55918 5.28059 8.63068 5.30841 8.84298 5.40781C8.92631 5.44683 9.06514 5.50129 9.15146 5.52884C9.23779 5.55638 9.33253 5.59119 9.36198 5.60618C9.39143 5.62117 9.48123 5.64836 9.56152 5.6666C9.81218 5.72356 9.82972 5.72963 9.93392 5.79538C9.98982 5.83065 10.042 5.8596 10.0498 5.8597C10.0576 5.8598 10.1041 5.8913 10.1531 5.92969C10.2022 5.96808 10.2547 5.99958 10.2699 5.99968C10.2851 5.99978 10.3051 6.00665 10.3145 6.01494C10.3238 6.02322 10.3898 6.03913 10.4612 6.05028C10.5621 6.06605 10.6097 6.08419 10.6751 6.13179C10.7214 6.16547 10.8132 6.22835 10.8791 6.27153C10.9451 6.31471 11.0092 6.36599 11.0216 6.38548C11.0339 6.40497 11.0511 6.42092 11.0596 6.42092C11.0831 6.42092 11.2914 6.57819 11.3118 6.61131C11.3382 6.65412 11.3337 7.08036 11.3058 7.18738C11.2927 7.23744 11.2586 7.31475 11.23 7.35919C11.183 7.43208 11.1763 7.46176 11.161 7.6629C11.1459 7.8634 11.12 7.9851 11.0519 8.17531C11.0288 8.23997 10.9492 8.39987 10.9253 8.42969C10.8389 8.53755 10.8138 8.56127 10.7858 8.56127C10.7679 8.56127 10.7506 8.5676 10.7473 8.57532C10.7325 8.61044 10.5514 8.68855 10.4334 8.71079C10.3087 8.73425 10.1621 8.79745 10.1621 8.82766C10.1621 8.83553 10.1515 8.84197 10.1387 8.84197C10.1258 8.84197 10.0821 8.85776 10.0415 8.87706C9.97548 8.90845 9.93122 8.91215 9.62168 8.91215C9.20753 8.91215 9.12207 8.92595 8.95885 9.01916C8.83377 9.09059 8.71476 9.13948 8.66473 9.13998C8.65002 9.14013 8.60612 9.16817 8.56717 9.20229C8.52821 9.23641 8.47607 9.26996 8.4513 9.27683C8.42653 9.28371 8.2444 9.28934 8.04658 9.28934C7.63571 9.28934 7.63733 9.28984 7.52986 9.13021C7.40151 8.93958 7.36059 8.89542 7.25284 8.83121C7.19115 8.79445 7.12512 8.75026 7.10612 8.733C7.08711 8.71574 7.0641 8.70162 7.05499 8.70162C7.02126 8.70162 6.77248 8.43346 6.68203 8.29962C6.65977 8.26668 6.60145 8.21407 6.55243 8.1827C6.44888 8.11645 6.30525 7.97665 6.27151 7.90927C6.24795 7.86223 6.04696 7.70162 6.01165 7.70162C6.00123 7.70162 5.98628 7.69093 5.97844 7.67786C5.9706 7.6648 5.9452 7.64429 5.922 7.63229C5.88704 7.61421 5.87513 7.61508 5.85247 7.63739C5.80913 7.68004 5.85284 7.96072 5.92257 8.08758C5.9694 8.17278 5.97679 8.20674 5.98574 8.37784C5.99131 8.48441 5.9901 8.6246 5.98305 8.68937C5.97186 8.79218 5.96073 8.8188 5.8953 8.89911C5.85409 8.9497 5.80539 9.02464 5.78708 9.06565C5.76877 9.10666 5.7488 9.14021 5.74272 9.14021C5.73663 9.14021 5.71581 9.16982 5.69644 9.206C5.67708 9.24218 5.59905 9.34917 5.52305 9.44374C5.44705 9.53831 5.38483 9.6291 5.38479 9.64549C5.38474 9.66188 5.35065 9.71154 5.30903 9.75585C5.24827 9.82052 5.21203 9.84214 5.12523 9.8655C5.06577 9.8815 4.97731 9.89459 4.92867 9.89459C4.83936 9.89459 4.76046 9.93027 4.76159 9.97015C4.76243 9.99997 4.81729 10.0607 4.86868 10.0888C4.96785 10.1429 5.18929 10.1938 5.39975 10.2108C5.52423 10.2208 5.64178 10.2398 5.6707 10.2546C5.6988 10.2689 5.73364 10.2806 5.74813 10.2806C5.76263 10.2806 5.78508 10.2909 5.79804 10.3036C5.811 10.3163 5.8617 10.3494 5.91072 10.3771C5.95974 10.4048 6.03497 10.4507 6.0779 10.4792C6.12083 10.5077 6.19058 10.5412 6.23291 10.5538C6.32544 10.5812 6.37782 10.6077 6.42517 10.6511C6.47806 10.6996 6.62093 10.7691 6.72644 10.7976C6.77779 10.8115 6.83986 10.8285 6.86437 10.8355C6.88888 10.8425 6.96509 10.8775 7.03371 10.9133C7.14411 10.9708 7.17752 10.9794 7.32359 10.988C7.44519 10.9951 7.51092 11.0083 7.57307 11.0382C7.6764 11.0879 7.95498 11.359 8.0076 11.461C8.02856 11.5017 8.06466 11.5573 8.08784 11.5845C8.111 11.6118 8.12996 11.6406 8.12996 11.6485C8.12996 11.6563 8.17608 11.7095 8.23246 11.7666C8.33166 11.8671 8.43299 12.0247 8.43299 12.0785C8.43299 12.0929 8.46507 12.1502 8.50427 12.2058C8.54347 12.2614 8.57556 12.3168 8.57557 12.329C8.57558 12.3411 8.63976 12.4215 8.7182 12.5076C8.79663 12.5937 8.8608 12.6688 8.8608 12.6745C8.8608 12.688 8.9524 12.8266 8.98109 12.8564C8.99336 12.8691 9.0034 12.8856 9.0034 12.8929C9.0034 12.9003 9.0316 12.934 9.06606 12.968C9.11024 13.0114 9.1368 13.0602 9.15608 13.1332C9.18692 13.2499 9.2538 13.3301 9.36553 13.3845C9.45375 13.4275 9.54607 13.5531 9.57685 13.6722C9.59781 13.7532 9.62295 13.7853 9.8099 13.9695C9.92515 14.083 10.0195 14.1807 10.0195 14.1864C10.0195 14.1922 10.0433 14.2237 10.0725 14.2564C10.1016 14.2891 10.1387 14.3612 10.155 14.4166C10.1884 14.5308 10.2191 14.5782 10.3581 14.7297C10.4161 14.793 10.488 14.9005 10.534 14.9928C10.5769 15.0787 10.643 15.1892 10.6811 15.2383C10.7192 15.2875 10.7503 15.339 10.7503 15.3529C10.7503 15.3668 10.813 15.445 10.8896 15.5267C11.0454 15.693 11.1667 15.849 11.1857 15.9079C11.1926 15.9294 11.2101 15.9587 11.2246 15.9729C11.239 15.9871 11.2688 16.0299 11.2908 16.068C11.3128 16.1061 11.3933 16.202 11.4696 16.2812C11.6112 16.4281 11.6598 16.5163 11.755 16.7995C11.7764 16.863 11.8205 16.9261 11.9083 17.0188C12.0069 17.123 12.0393 17.1718 12.0703 17.263C12.0917 17.3257 12.1195 17.3889 12.1321 17.4033C12.1896 17.4695 12.2476 17.5991 12.2474 17.6611C12.2472 17.7471 12.1688 17.8816 12.0652 17.9735C11.9279 18.0953 11.8915 18.1226 11.8664 18.1226C11.8253 18.1226 11.6335 18.2121 11.6184 18.2383C11.6105 18.2519 11.5937 18.263 11.581 18.263C11.5683 18.263 11.526 18.2965 11.4869 18.3376C11.394 18.4353 11.3047 18.5089 11.2494 18.5334C11.2249 18.5443 11.1591 18.5827 11.1032 18.6186C11.0473 18.6546 10.9934 18.684 10.9835 18.684C10.9735 18.684 10.9391 18.7068 10.9069 18.7346C10.7795 18.8446 10.6182 18.9189 10.445 18.9474C10.2958 18.9719 10.2251 19.002 10.1975 19.0529C10.1748 19.0946 10.157 19.0875 10.4332 19.1475C10.6851 19.2022 11.0806 19.2113 11.2554 19.1665C11.3119 19.152 11.4101 19.1402 11.4738 19.1402C11.5836 19.1402 11.5932 19.1437 11.6638 19.2084L11.7381 19.2767L11.7523 19.59C11.7657 19.8865 11.7692 19.909 11.8186 20.0086C11.8713 20.115 11.902 20.3004 11.9435 20.7633C11.9542 20.8835 11.9697 20.9447 12.0079 21.0177C12.0575 21.1128 12.0582 21.1187 12.0706 21.5349C12.0795 21.8369 12.0912 21.9847 12.1118 22.0577C12.1314 22.1269 12.1407 22.2307 12.1407 22.3823C12.1407 22.5048 12.1494 22.6919 12.1601 22.7981C12.1707 22.9042 12.1808 23.0661 12.1823 23.1577C12.1849 23.3046 12.1916 23.3369 12.2387 23.4297L12.2922 23.5349L12.2926 24.1577C12.2928 24.6043 12.2991 24.7979 12.3148 24.8418C12.3269 24.8755 12.3367 24.9685 12.3367 25.0485C12.3367 25.3006 12.4093 25.3896 12.4972 25.2454C12.5179 25.2114 12.5252 25.124 12.5297 24.8549C12.5359 24.4814 12.5255 24.4199 12.4225 24.2254C12.3852 24.1551 12.3823 24.1285 12.3848 23.8771C12.3863 23.7275 12.3943 22.7603 12.4027 21.7278L12.4178 19.8507L12.4585 19.7778C12.5102 19.6851 12.5975 19.6285 12.7652 19.5788C12.9182 19.5335 13.0676 19.4728 13.0676 19.4559C13.0676 19.4495 13.0896 19.4332 13.1166 19.4196C13.1436 19.4061 13.2005 19.3672 13.2431 19.3333C13.4226 19.1907 13.4775 19.1349 13.4775 19.0956C13.4775 19.0466 13.3956 18.9755 13.3051 18.9461C13.136 18.8912 13.0325 18.8112 12.7832 18.5427C12.6328 18.3807 12.6273 18.3717 12.6154 18.2708C12.5857 18.018 12.5107 17.7475 12.4231 17.578C12.3756 17.486 12.3367 17.4017 12.3367 17.3907C12.3367 17.3797 12.3079 17.3231 12.2727 17.265C12.2237 17.184 12.2064 17.1333 12.199 17.0488C12.1884 16.9282 12.1769 16.8988 12.1041 16.8068C12.0575 16.748 12.0309 16.6622 12.0061 16.491C11.9998 16.4476 11.9585 16.341 11.9144 16.2542C11.8341 16.0959 11.8037 16.0193 11.7673 15.8826C11.7566 15.8423 11.7199 15.7685 11.6858 15.7186C11.6516 15.6687 11.6237 15.6169 11.6237 15.6035C11.6237 15.5902 11.5945 15.5258 11.5587 15.4606C11.523 15.3953 11.4835 15.3221 11.4709 15.298C11.4584 15.2739 11.4362 15.1969 11.4217 15.1269C11.3957 15.0016 11.3326 14.8705 11.2762 14.8244C11.2604 14.8115 11.2143 14.745 11.1739 14.6767C11.1181 14.5826 11.0209 14.4754 10.7737 14.2353C10.5942 14.0608 10.447 13.9069 10.4468 13.8932C10.4459 13.8422 10.3207 13.7022 10.1883 13.6041C10.1132 13.5485 10.0427 13.4825 10.0317 13.4575C10.0076 13.4028 9.93014 13.2807 9.89914 13.2485C9.88686 13.2358 9.87682 13.2148 9.87682 13.2019C9.87682 13.189 9.82025 13.1205 9.75111 13.0496C9.68197 12.9788 9.59347 12.8882 9.55444 12.8484C9.51542 12.8085 9.46459 12.7374 9.44149 12.6905C9.41838 12.6435 9.37466 12.5774 9.34432 12.5436C9.31398 12.5099 9.28903 12.4717 9.28887 12.4589C9.28849 12.4281 9.18885 12.3066 9.01161 12.1209C8.88614 11.9894 8.86485 11.9576 8.84576 11.8737C8.83033 11.8058 8.82922 11.7634 8.842 11.7303C8.86593 11.6684 8.93832 11.6413 9.01084 11.6671C9.04105 11.6778 9.1433 11.6935 9.23806 11.702C9.33281 11.7104 9.45831 11.7296 9.51692 11.7445C9.58346 11.7615 9.70291 11.7718 9.83483 11.7721C10.0589 11.7725 10.1776 11.7923 10.3938 11.8656C10.5527 11.9195 10.8454 11.9821 10.9408 11.9826C10.9821 11.9827 11.0462 12.0032 11.1042 12.0347C11.1902 12.0813 11.2584 12.0995 11.4659 12.1311C11.5017 12.1366 11.5822 12.1678 11.6449 12.2005C11.7666 12.2641 12.0334 12.3413 12.1941 12.3594C12.3465 12.3765 12.4639 12.4048 12.541 12.443C12.5798 12.4622 12.6761 12.4919 12.7549 12.5091C13.0424 12.5715 13.0343 12.5674 13.2369 12.752C13.2761 12.7878 13.3483 12.8439 13.3973 12.8768C13.4463 12.9098 13.4971 12.9469 13.51 12.9595C13.523 12.972 13.5398 12.9822 13.5473 12.9822C13.5549 12.9822 13.6244 13.0434 13.7017 13.1182C13.779 13.193 13.8552 13.262 13.871 13.2717C14.1783 13.4587 14.2502 13.5282 14.3792 13.7629C14.3898 13.7822 14.4447 13.8217 14.5011 13.8506C14.5575 13.8796 14.645 13.9461 14.6957 13.9984C14.909 14.2188 14.9536 14.2579 15.0031 14.2679C15.069 14.2811 15.2145 14.4161 15.248 14.4949C15.2898 14.5935 15.3812 14.684 15.4389 14.684C15.4994 14.684 15.5301 14.6557 15.6204 14.5173C15.6899 14.4107 15.8491 14.2629 15.8944 14.2629C15.9275 14.2629 16.0979 14.1589 16.0979 14.1386C16.0979 14.1298 16.1064 14.1226 16.1168 14.1226C16.1272 14.1226 16.1999 14.0594 16.2783 13.9822C16.3567 13.905 16.4297 13.8419 16.4405 13.8419C16.4747 13.8419 16.6829 13.6942 16.7003 13.6576C16.7286 13.598 16.9018 13.4033 16.9265 13.4033C16.9991 13.4033 17.203 13.2299 17.203 13.1682C17.203 13.1324 17.2895 13.056 17.3538 13.0351C17.3885 13.0238 17.4169 13.0073 17.4169 12.9984C17.4169 12.9895 17.431 12.9821 17.4481 12.9819C17.4653 12.9818 17.5074 12.9571 17.5417 12.9272C17.576 12.8972 17.621 12.8616 17.6417 12.8481C17.6726 12.8279 17.7913 12.6348 17.7913 12.6048C17.7913 12.5895 17.746 12.5958 17.6945 12.6182C17.5234 12.6926 17.4605 12.732 17.4354 12.7805C17.4203 12.8094 17.404 12.8371 17.3991 12.8419C17.3942 12.8467 17.3708 12.8783 17.347 12.9121C17.3232 12.9458 17.2931 12.9798 17.2801 12.9875C17.2671 12.9952 17.2565 13.0121 17.2565 13.0251C17.2565 13.0398 17.2114 13.0587 17.1362 13.0755C16.9516 13.1167 16.928 13.1296 16.7798 13.2711C16.7037 13.3437 16.6335 13.4031 16.6237 13.4032C16.5791 13.4035 16.3127 13.5925 16.19 13.7109C16.1154 13.7829 16.0458 13.8419 16.0353 13.8419C16.0161 13.8419 15.9718 13.8792 15.7613 14.0723C15.6987 14.1298 15.6232 14.1891 15.5935 14.2042C15.5134 14.245 15.3638 14.2286 15.2241 14.1638C15.1212 14.116 15.0438 14.0461 14.5156 13.5242C14.1895 13.202 13.9093 12.9186 13.8928 12.8945C13.8763 12.8704 13.8572 12.8467 13.8503 12.8419C13.825 12.8242 13.8007 12.6911 13.8127 12.6361C13.8272 12.5701 13.9555 12.4033 13.9918 12.4033C14.0216 12.4033 14.1241 12.2979 14.1883 12.2012C14.253 12.1039 14.3394 11.9922 14.3555 11.9852C14.3628 11.9819 14.3688 11.9655 14.3688 11.9487C14.3688 11.9319 14.4294 11.8655 14.5035 11.8012C14.6615 11.664 14.7403 11.567 14.8074 11.4274C14.837 11.3657 14.9028 11.2795 14.9749 11.2079C15.0943 11.0892 15.1723 10.9992 15.2276 10.9165C15.244 10.8919 15.317 10.8114 15.3897 10.7375C15.4804 10.6454 15.5322 10.576 15.5548 10.5164C15.5921 10.4183 15.6618 10.2988 15.6985 10.27C15.7974 10.1923 15.9553 10.0428 15.9553 10.0269C15.9553 10.0163 15.9693 9.99509 15.9865 9.97979C16.0036 9.9645 16.0694 9.89761 16.1326 9.83116C16.1958 9.7647 16.345 9.6113 16.464 9.49024C16.6482 9.30303 16.8287 9.06774 16.8287 9.01491C16.8287 9.00752 16.8903 8.93768 16.9655 8.8597C17.0406 8.78172 17.1266 8.68463 17.1565 8.64394C17.1864 8.60326 17.2211 8.56367 17.2337 8.55595C17.2463 8.54823 17.2565 8.53372 17.2565 8.52369C17.2565 8.51366 17.3159 8.44665 17.3885 8.37477C17.4703 8.29369 17.5382 8.20704 17.5673 8.14647C17.6245 8.02764 17.7177 7.91439 17.8337 7.82284C17.9417 7.73766 18.0323 7.73017 18.1338 7.79804C18.1699 7.82217 18.2043 7.8419 18.2103 7.8419C18.2593 7.8419 18.5756 8.18803 18.5756 8.24157C18.5756 8.25178 18.6141 8.30221 18.661 8.35365C18.7739 8.47729 18.8608 8.58854 18.8608 8.6094C18.8608 8.61866 18.9859 8.7515 19.1387 8.90459C19.2915 9.05769 19.4281 9.20489 19.4422 9.23172C19.4563 9.25854 19.4736 9.28068 19.4807 9.2809C19.4878 9.28113 19.5172 9.31271 19.5461 9.35108C19.5749 9.38945 19.6079 9.42084 19.6195 9.42084C19.6542 9.42084 19.8072 9.59949 19.8449 9.684C19.8976 9.80225 19.8836 10.0589 19.8171 10.1928C19.7447 10.3384 19.7304 10.359 19.6259 10.4693C19.5728 10.5253 19.495 10.6162 19.4531 10.6713C19.4111 10.7264 19.2035 10.9432 18.9916 11.1532C18.6349 11.5066 18.5768 11.5749 18.4086 11.838C18.379 11.8842 18.3146 11.9428 18.2408 11.9906C18.175 12.0333 18.104 12.083 18.083 12.101C18.0419 12.1364 17.875 12.4662 17.8843 12.4938C17.8875 12.503 17.926 12.4865 17.9699 12.4572C18.0138 12.4279 18.0592 12.4038 18.0708 12.4036C18.0823 12.4035 18.1024 12.3931 18.1154 12.3806C18.1729 12.325 18.3897 12.1734 18.4237 12.165C18.5312 12.1385 18.6135 12.2391 18.6169 12.4014C18.6188 12.4934 18.5862 12.6531 18.5574 12.6928C18.5242 12.7385 18.5036 12.8529 18.4894 13.0704L18.4739 13.3076L18.3733 13.5113C18.3179 13.6234 18.2726 13.7355 18.2726 13.7604C18.2726 13.8105 18.2098 13.9525 18.1395 14.0612C18.0552 14.1916 18.0368 14.2477 18.0443 14.3501C18.0483 14.4035 18.0658 14.4748 18.0832 14.5086C18.134 14.6072 18.1835 14.7424 18.1835 14.7828C18.1835 14.8033 18.1709 14.8497 18.1556 14.8858C18.1402 14.922 18.116 15.0394 18.1018 15.1468C18.0876 15.2541 18.0687 15.3656 18.0599 15.3946C18.051 15.4235 18.0384 15.4867 18.0318 15.5349C18.0156 15.654 17.9789 15.786 17.9425 15.8563C17.9246 15.8908 17.9061 15.9874 17.8971 16.0931C17.8887 16.1914 17.8736 16.2993 17.8634 16.333C17.8532 16.3667 17.8447 16.4141 17.8446 16.4383C17.8445 16.4625 17.8125 16.5494 17.7735 16.6314C17.72 16.744 17.7025 16.8026 17.7024 16.8704C17.7022 16.9724 17.6715 17.07 17.6087 17.1689C17.5528 17.2567 17.5278 17.3302 17.5055 17.4722C17.488 17.5832 17.4319 17.8006 17.3959 17.8971C17.3864 17.9227 17.319 18.0027 17.2463 18.075C17.1735 18.1474 17.114 18.2149 17.114 18.2251C17.114 18.2353 17.1035 18.25 17.0907 18.2577C17.0779 18.2654 17.0443 18.3033 17.016 18.3419C16.9877 18.3805 16.8546 18.5226 16.7202 18.6577C16.4716 18.9076 16.437 18.9603 16.4367 19.0887C16.4364 19.2135 16.3828 19.3163 16.2486 19.4497C16.1758 19.522 16.1024 19.6043 16.0854 19.6326C16.0685 19.6609 16.0486 19.684 16.0412 19.684C16.0339 19.684 16.0085 19.7122 15.9847 19.7466C15.961 19.7809 15.9174 19.8224 15.888 19.8387C15.8175 19.8776 15.6912 20.0243 15.6766 20.0841C15.6703 20.1101 15.6342 20.1942 15.5963 20.2709L15.5275 20.4104L15.5274 21.1305C15.5273 21.7891 15.5242 21.8631 15.4917 21.9965C15.4585 22.1328 15.4562 22.2039 15.4562 23.0795C15.4562 23.8792 15.4519 24.0376 15.4269 24.1597C15.3997 24.2926 15.3997 24.3137 15.427 24.454C15.4522 24.5832 15.4563 24.7422 15.4555 25.5524C15.455 26.0735 15.4477 26.5314 15.4393 26.57C15.4308 26.6086 15.4022 26.6954 15.3756 26.763C15.3296 26.8799 15.3269 26.9041 15.3188 27.2717C15.3116 27.6023 15.3056 27.6678 15.2767 27.7283C15.213 27.8618 15.6466 27.8504 10.5186 27.8531C7.9842 27.8544 5.89472 27.8522 5.87511 27.8482L5.87508 27.8482ZM13.2621 12.4054C13.203 12.3933 13.1097 12.3398 13.0529 12.2855C13.04 12.2731 13.0193 12.263 13.007 12.263C12.9947 12.263 12.9371 12.2267 12.879 12.1822C12.729 12.0675 12.6938 12.0532 12.5191 12.0355C12.3474 12.0182 12.2741 11.9955 12.1674 11.9268C11.8643 11.7318 11.8127 11.7054 11.7305 11.7029C11.6731 11.7012 11.5349 11.6291 11.4084 11.5349C11.3537 11.4942 11.2695 11.4412 11.2212 11.4172C11.173 11.3932 11.0938 11.3487 11.0454 11.3183C10.9969 11.2879 10.9464 11.263 10.9332 11.263C10.8921 11.263 10.7794 11.199 10.7094 11.1359C10.6284 11.0628 10.6012 10.9835 10.626 10.8927C10.6455 10.8216 10.7735 10.6401 10.8422 10.5862C10.8659 10.5677 10.8963 10.5248 10.9097 10.4911C10.9754 10.3255 11.0578 10.1778 11.1149 10.1234C11.1496 10.0903 11.1781 10.0543 11.1781 10.0434C11.1781 10.0326 11.2422 9.93798 11.3207 9.83316C11.3991 9.72835 11.4633 9.63274 11.4633 9.62071C11.4633 9.60867 11.4738 9.58839 11.4867 9.57564C11.5972 9.46612 11.7556 9.27943 11.7742 9.23667C11.7869 9.20773 11.8203 9.15884 11.8486 9.12804C11.9512 9.01623 11.9854 8.96039 12.0232 8.84304C12.0455 8.77391 12.0859 8.6964 12.1191 8.65925C12.1506 8.62393 12.1955 8.55782 12.219 8.51234C12.2424 8.46686 12.2785 8.41461 12.2991 8.39623C12.3198 8.37785 12.3367 8.35313 12.3367 8.3413C12.3367 8.32946 12.3645 8.29892 12.3985 8.27342C12.4324 8.24793 12.4717 8.2016 12.4858 8.17046C12.4999 8.13933 12.5381 8.05465 12.5706 7.98229C12.6032 7.90992 12.634 7.84676 12.6392 7.84194C12.6819 7.80222 12.7823 7.66459 12.7823 7.64582C12.7823 7.63286 12.8099 7.59089 12.8436 7.55255C12.9012 7.48694 12.9792 7.31933 13.007 7.2016C13.0138 7.17265 13.0302 7.13339 13.0435 7.11436C13.0567 7.09533 13.0675 7.06914 13.0675 7.05616C13.0675 7.04319 13.0936 7.00721 13.1255 6.9762C13.2283 6.87618 13.3154 6.76882 13.3682 6.67712C13.3965 6.62786 13.4367 6.57252 13.4575 6.55414C13.4783 6.53576 13.4954 6.51258 13.4954 6.50263C13.4954 6.49268 13.5495 6.40672 13.6157 6.3116C13.6818 6.21647 13.7497 6.11398 13.7664 6.08386C13.7831 6.05373 13.8286 5.99684 13.8674 5.95744C13.9359 5.88786 14.0268 5.75574 14.0674 5.66651C14.0784 5.64239 14.0941 5.61081 14.1024 5.59633C14.1411 5.5283 14.2262 5.34491 14.2262 5.32961C14.2262 5.32017 14.2546 5.27982 14.2892 5.23995C14.3239 5.20008 14.3564 5.14751 14.3613 5.12312C14.3875 4.99511 14.4116 4.9413 14.4675 4.88635C14.5516 4.80353 14.6457 4.78004 14.7463 4.81668C14.7887 4.8321 14.8514 4.85102 14.8857 4.85873C14.9999 4.88438 15.0841 4.93106 15.2217 5.04496C15.2833 5.09592 15.6134 5.26375 15.7024 5.28933C15.7251 5.29585 15.8319 5.3863 15.9398 5.49033C16.0477 5.59436 16.1575 5.69022 16.1838 5.70336C16.2493 5.73618 16.3936 5.87952 16.4089 5.92712C16.4206 5.96312 16.5069 6.02872 16.6148 6.08348C16.72 6.13689 16.7517 6.16175 16.8758 6.28789C16.9477 6.36105 17.0119 6.42091 17.0185 6.42091C17.025 6.42091 17.0551 6.43951 17.0855 6.46224C17.1158 6.48497 17.1727 6.51968 17.2119 6.53938C17.2974 6.58229 17.4169 6.70494 17.4169 6.74969C17.4169 6.76732 17.445 6.82464 17.4793 6.87706C17.5541 6.99132 17.5628 7.05216 17.5206 7.16653C17.4961 7.23282 17.3713 7.48267 17.3277 7.5525C17.3096 7.58144 17.2776 7.65053 17.2566 7.70602C17.2355 7.76151 17.2087 7.81677 17.197 7.82882C17.1589 7.86818 17.1139 7.94544 17.1139 7.97147C17.1139 7.98548 17.1073 7.99957 17.0993 8.00279C17.0524 8.02168 16.9165 8.2224 16.8742 8.33532C16.8475 8.40652 16.8178 8.48555 16.8081 8.51095C16.7984 8.53635 16.767 8.57927 16.7383 8.60633C16.7096 8.6334 16.6861 8.66111 16.6861 8.66791C16.6861 8.67472 16.6433 8.72259 16.5909 8.77428C16.5386 8.82598 16.4501 8.92889 16.3943 9.00298C16.3384 9.07707 16.2867 9.14023 16.2794 9.14333C16.2511 9.15541 16.0979 9.3554 16.0979 9.38033C16.0979 9.4074 16.0456 9.49014 15.9891 9.55249C15.8543 9.70118 15.8127 9.75161 15.8127 9.76615C15.8127 9.77537 15.7197 9.87645 15.6061 9.99077C15.4925 10.1051 15.3921 10.2151 15.3829 10.2352C15.3738 10.2553 15.3426 10.3073 15.3135 10.3507C15.2845 10.3942 15.2534 10.4455 15.2443 10.4648C15.2353 10.4841 15.1685 10.5591 15.096 10.6316C14.9916 10.7358 14.9456 10.8 14.8759 10.9382C14.8274 11.0344 14.7676 11.1302 14.7431 11.1512C14.6669 11.2163 14.6207 11.2531 14.575 11.2851C14.5508 11.3021 14.5206 11.3346 14.5078 11.3574C14.4198 11.5149 14.02 11.9823 13.9732 11.9823C13.9413 11.9823 13.8045 12.1095 13.6736 12.2608C13.6295 12.3118 13.5726 12.3643 13.5472 12.3775C13.4879 12.4082 13.3442 12.4223 13.2621 12.4054L13.2621 12.4054ZM9.08524 11.0787C9.0469 11.0563 9.0084 11.0255 8.99969 11.0102C8.99097 10.9948 8.97422 10.9821 8.96245 10.982C8.95068 10.9818 8.90897 10.9541 8.86975 10.9204C8.83054 10.8867 8.78241 10.8542 8.7628 10.8482C8.72552 10.8368 8.58889 10.7379 8.57861 10.7149C8.57534 10.7076 8.56111 10.7016 8.54699 10.7016C8.53286 10.7016 8.48032 10.6738 8.43024 10.6399C8.38015 10.606 8.31818 10.5737 8.29252 10.5682C8.13787 10.5348 7.88031 10.4263 7.83589 10.3759C7.82609 10.3647 7.78057 10.3309 7.73474 10.3006C7.63434 10.2343 7.57742 10.1668 7.57742 10.1139C7.57742 10.0706 7.64016 9.9823 7.67093 9.9823C7.68173 9.9823 7.75534 9.95155 7.83452 9.91396C7.91371 9.87637 8.03654 9.82815 8.10748 9.8068C8.17843 9.78546 8.32213 9.72476 8.42684 9.67191C8.58613 9.59151 8.63928 9.57353 8.7524 9.56173C8.84518 9.55205 8.92539 9.52996 9.00807 9.49131C9.12244 9.43785 9.14323 9.4343 9.41805 9.42128C9.7088 9.40751 9.757 9.39831 9.92146 9.32527C10.0249 9.27933 10.1421 9.25212 10.3038 9.2365C10.367 9.23039 10.4666 9.20622 10.5252 9.18279C10.6905 9.11668 10.786 9.12568 10.8312 9.21163C10.8678 9.28119 10.8641 9.32093 10.8105 9.43519C10.7848 9.49005 10.757 9.55776 10.7487 9.58564C10.7404 9.61353 10.7032 9.68121 10.6662 9.73605C10.6138 9.81354 10.577 9.84623 10.5008 9.88272C10.3918 9.9349 10.2571 9.98166 10.2146 9.98206C10.1886 9.98229 10.0195 10.1894 10.0195 10.221C10.0195 10.2339 9.89362 10.497 9.85665 10.5613C9.79468 10.669 9.73426 10.7921 9.73413 10.8108C9.73386 10.8475 9.46516 11.0758 9.38835 11.1045C9.30491 11.1357 9.16218 11.1236 9.08525 11.0787L9.08524 11.0787ZM11.4015 8.18622C11.3512 8.13673 11.3422 8.05266 11.376 7.94718C11.3868 7.91347 11.4023 7.76748 11.4104 7.62274C11.4246 7.36902 11.4578 7.21904 11.5149 7.15136C11.5478 7.11228 11.6238 6.78686 11.6234 6.6866C11.6227 6.5235 11.5991 6.45948 11.5054 6.36586C11.4585 6.31898 11.4121 6.28062 11.4024 6.28062C11.3431 6.28062 10.9777 6.12579 10.9002 6.06781C10.8503 6.03048 10.8 5.99993 10.7884 5.99993C10.7676 5.99993 10.625 5.91472 10.6076 5.89183C10.6026 5.88527 10.5745 5.87455 10.5452 5.868C10.3831 5.83181 10.1805 5.74155 9.99278 5.62193C9.79595 5.49649 9.78649 5.49239 9.63124 5.46534C9.43985 5.43199 9.40403 5.41515 9.34845 5.33252C9.26123 5.2028 9.28862 5.00445 9.4159 4.84404C9.43416 4.82103 9.4491 4.78896 9.4491 4.77277C9.4491 4.73204 9.52867 4.57343 9.56328 4.54515C9.57891 4.53238 9.5917 4.51251 9.5917 4.501C9.5917 4.48948 9.61777 4.45581 9.64964 4.42618C9.74927 4.33353 9.80884 4.25715 9.84525 4.17536C9.92811 3.9892 10.0473 3.77936 10.1161 3.69855C10.2201 3.57635 10.26 3.52449 10.2862 3.47718C10.3007 3.45109 10.3428 3.38183 10.3799 3.32326C10.417 3.2647 10.4473 3.20499 10.4473 3.19059C10.4473 3.1593 10.5133 3.01953 10.5456 2.98238C10.5582 2.96791 10.594 2.9087 10.6252 2.8508C10.6564 2.79291 10.692 2.73765 10.7045 2.728C10.7169 2.71835 10.7414 2.68282 10.759 2.64905C10.7766 2.61528 10.797 2.5837 10.8044 2.57887C10.8215 2.56773 10.9286 2.36072 10.9286 2.33891C10.9286 2.32993 10.9557 2.29674 10.9888 2.26513C11.0325 2.2235 11.0705 2.20525 11.127 2.19888C11.2407 2.18605 11.2992 2.15966 11.3405 2.1026C11.3916 2.03186 11.4707 1.99499 11.5404 2.00939C11.5716 2.01582 11.6492 2.04749 11.7129 2.07978C11.7767 2.11206 11.866 2.14318 11.9114 2.14892C11.9943 2.15939 12.1719 2.25202 12.304 2.35371C12.3399 2.38133 12.4001 2.41649 12.4377 2.43186C12.4754 2.44722 12.5503 2.48583 12.6042 2.51765C12.6581 2.54948 12.7337 2.58083 12.7722 2.58734C12.8928 2.60771 13.3254 2.82772 13.3497 2.88104C13.3529 2.88803 13.4131 2.93478 13.4834 2.98494C13.5538 3.03509 13.6907 3.15372 13.7876 3.24855C13.8846 3.34338 13.968 3.42097 13.9731 3.42097C13.9782 3.42097 14.0071 3.43959 14.0375 3.46234C14.0678 3.48509 14.1327 3.52402 14.1817 3.54884C14.2308 3.57366 14.3098 3.6261 14.3575 3.66537C14.4051 3.70463 14.4511 3.73676 14.4596 3.73676C14.4831 3.73676 14.5472 3.87771 14.5468 3.92865C14.5459 4.05876 14.4653 4.39193 14.4082 4.50188C14.3753 4.56521 14.3539 4.65762 14.3218 4.87469C14.317 4.90713 14.2935 4.95288 14.2697 4.97636C14.2458 4.99985 14.2263 5.02258 14.2263 5.02688C14.2263 5.03118 14.1996 5.06913 14.167 5.11121C14.1343 5.15329 14.0975 5.22352 14.085 5.26728C14.0621 5.34765 13.9812 5.45902 13.8521 5.58763C13.7877 5.65175 13.6381 5.90921 13.6381 5.95579C13.6381 5.96656 13.5679 6.0506 13.4821 6.14256C13.3516 6.28247 13.3164 6.33332 13.2664 6.45411C13.2225 6.56045 13.1766 6.63239 13.0921 6.72735C13.029 6.79825 12.9656 6.8607 12.9512 6.86614C12.9368 6.87158 12.9251 6.88542 12.9251 6.89691C12.9251 6.9084 12.893 6.95962 12.8538 7.01075C12.8145 7.06187 12.7825 7.11127 12.7825 7.12053C12.7825 7.12978 12.7763 7.13999 12.7689 7.14321C12.7489 7.15181 12.6338 7.31674 12.6087 7.37274C12.5969 7.39927 12.5809 7.42111 12.5734 7.42126C12.5658 7.42142 12.5316 7.44615 12.4972 7.47623C12.4629 7.50631 12.4069 7.5426 12.3727 7.55687C12.3385 7.57114 12.2142 7.67572 12.0964 7.78927C11.8215 8.05429 11.7597 8.10555 11.648 8.1612C11.5026 8.23359 11.4546 8.23846 11.4015 8.18622L11.4015 8.18622ZM8.40628 5.05762C8.36313 5.04737 8.27169 5.01019 8.17207 4.96239C8.13149 4.94292 8.06663 4.92281 8.02795 4.9177C7.97703 4.91098 7.92714 4.88302 7.84715 4.81639C7.72817 4.71727 7.61804 4.67592 7.32956 4.62207C7.16071 4.59055 7.08601 4.56171 6.96433 4.48106C6.91453 4.44805 6.86653 4.42104 6.85768 4.42104C6.84883 4.42104 6.83268 4.40973 6.82179 4.3959C6.78773 4.35263 6.63003 4.28069 6.56921 4.28069C6.48999 4.28069 6.30903 4.22345 6.24384 4.17777C6.21447 4.15718 6.18222 4.14034 6.17218 4.14034C6.16214 4.14034 6.14257 4.12917 6.1287 4.11552C6.11482 4.10186 6.04808 4.05739 5.98037 4.01669C5.91266 3.97599 5.83458 3.92401 5.80687 3.90117C5.77916 3.87833 5.73905 3.85951 5.71774 3.85935C5.65409 3.85888 5.54246 3.78495 5.50625 3.71929C5.48052 3.67263 5.47409 3.63261 5.47948 3.55262C5.48869 3.41579 5.52409 3.32987 5.60474 3.24859C5.64068 3.21236 5.67009 3.17661 5.67009 3.16914C5.67009 3.14908 5.75972 3.03229 5.80975 2.98714C5.83362 2.96559 5.89153 2.92373 5.93844 2.89411C6.03591 2.83255 6.0555 2.80659 6.17295 2.58327C6.22733 2.47987 6.25833 2.3986 6.25833 2.35939C6.25833 2.29814 6.32183 2.14034 6.34648 2.14034C6.3536 2.14034 6.40655 2.04758 6.46416 1.9342C6.52177 1.82082 6.58616 1.71451 6.60726 1.69797C6.62836 1.68142 6.67456 1.61036 6.70993 1.54008C6.78461 1.39164 6.81705 1.34551 6.96242 1.18102C7.02125 1.11446 7.08542 1.03704 7.10503 1.00896C7.12463 0.980882 7.17076 0.926649 7.20752 0.88844C7.24429 0.850232 7.27437 0.812212 7.27437 0.803953C7.27437 0.795693 7.30044 0.745182 7.3323 0.691707C7.36416 0.638232 7.40226 0.571826 7.41697 0.54414C7.44974 0.482437 7.61478 0.298246 7.63729 0.298246C7.64627 0.298246 7.68734 0.26864 7.72855 0.232456C7.97689 0.014421 8.00771 0 8.22563 0C8.41349 0 8.48031 0.0226386 8.55302 0.110902C8.59622 0.163337 8.70197 0.216446 8.86079 0.265475C8.93432 0.288174 9.0048 0.316397 9.01742 0.328195C9.03003 0.339993 9.06412 0.363467 9.09317 0.38036C9.12223 0.397252 9.146 0.417265 9.146 0.424833C9.146 0.432402 9.16006 0.438595 9.17725 0.438595C9.19444 0.438595 9.24858 0.466651 9.29757 0.50094C9.34656 0.53523 9.42175 0.580549 9.46465 0.601649C9.50756 0.622749 9.5597 0.657714 9.58051 0.679351C9.60133 0.700988 9.6308 0.718826 9.646 0.718993C9.66119 0.719159 9.68125 0.726561 9.69056 0.73544C9.7161 0.759789 9.91744 0.859647 9.94101 0.859647C9.96798 0.859647 10.162 1.06803 10.162 1.09698C10.162 1.10927 10.1881 1.13465 10.22 1.15337C10.2518 1.17209 10.3052 1.21037 10.3385 1.23843C10.4921 1.3677 10.598 1.46408 10.6471 1.51908C10.6765 1.552 10.7104 1.57894 10.7224 1.57894C10.7345 1.57894 10.7778 1.6093 10.8186 1.64642C10.8882 1.70962 10.8929 1.71991 10.8928 1.8087C10.8927 1.9007 10.8842 1.92157 10.7992 2.03872C10.782 2.06243 10.7405 2.15723 10.7071 2.24936C10.6736 2.34151 10.6388 2.43165 10.6296 2.44966C10.4982 2.7087 10.4924 2.71773 10.3804 2.84119C10.3387 2.8871 10.3046 2.93275 10.3046 2.94263C10.3046 2.95251 10.2929 2.97021 10.2785 2.98197C10.2452 3.00917 10.1704 3.14025 10.156 3.19664C10.1464 3.23425 10.1183 3.28738 10.0325 3.42979C10.0209 3.44909 9.9811 3.5128 9.9441 3.57137C9.9071 3.62993 9.87682 3.68376 9.87682 3.69097C9.87682 3.69819 9.84073 3.7477 9.79661 3.80101C9.75249 3.85431 9.71624 3.90312 9.71605 3.90947C9.71587 3.91583 9.68779 3.95252 9.65366 3.99101C9.61954 4.0295 9.59162 4.07039 9.59162 4.08187C9.59162 4.09336 9.55953 4.1503 9.52032 4.2084C9.4811 4.26651 9.44902 4.32181 9.44902 4.33128C9.44902 4.34075 9.41292 4.37761 9.3688 4.41319C9.32469 4.44877 9.28859 4.48833 9.28859 4.50109C9.28859 4.51385 9.2737 4.53461 9.2555 4.54722C9.21978 4.57197 9.15772 4.68347 9.14021 4.75436C9.13425 4.77848 9.0962 4.84153 9.05565 4.89447C8.95048 5.03177 8.85627 5.06917 8.62014 5.06741C8.5221 5.06668 8.42584 5.06227 8.40624 5.05761L8.40628 5.05762Z" fill="#0FBE5E"/>
</svg>
